<svg id="Logo" xmlns="http://www.w3.org/2000/svg" viewBox="0 0 227.28 67.21"><defs><style>.cls-1{fill:none;}.cls-2{fill:#fff;}</style></defs><rect class="cls-1" width="227.28" height="67.21"/><path class="cls-2" d="M52.46,42.16V18.22H22V42.14l-1.27.1a72.61,72.61,0,0,0-8.1,1l-.61.51c-.62.41,0,.56.43.77.16.08.17.13.11.29s-.42.21-.35.44c.15.48.85,0,.8.66s-1.71.32-1.88,1,.61,0,.6,1.1.76,2.09,2.91,2.63c.51.12,2.91.08,1.68.8a3.14,3.14,0,0,1-.81.08c-.24,0-.78,0-.93.22s.26.32.19.64c-.28,0-.88,0-.62.5a1,1,0,0,0,.83.36,4.16,4.16,0,0,1,1.57.09c-.75.15-1.43.92,1.39.85.06.42.82.38,1.08.32,17.52-3.88,25.09-2.22,25.14-3.3-.24-.53-2.71-.47-3.12-.49-1.6-.08-5,.09-4.81-.32.09-1,17.85-.72,15.77-.12-.1,0-1.35.23-1.5.31-1,.52,2.72.62,3.1.65s1.55,0,1.35.49c-.06.15-1.38,0-1.33.2s.79.08.87.2c.53.84-6.53.42-10.18.5-1.07,0-3.17.14-4.26.29-1.85.25-.27.68,2.6,1,1.54.14,9.46.77,16.18,1.66,2,.36,2.62-.63,2.17-.9-.26-.15.85-.71-.39-1.24-.79-.34-.14-.47-.09-.46s1.71.42,1.12-.12c-.38-.34.26-.14.38-.15,1.49-.11,1.14-.68,1.23-.58-.44-.44.76-.75.48-1.73-.08-.28-1.79-.22-.67-.46.13,0,1.7,0,.25-.84a4.08,4.08,0,0,0-1.14-.31c-1.08-.24-.27-.78.26-.7s1.32-.32,1.2-1c-.13-.87-.43-2.1.46-2.27.53-.49-1.21-1.08-1.21-1.08s-1.86-.86-9.26-1.46Zm-19.61-.3V29.16h8.76v12.7C39.36,41.81,35.69,41.83,32.85,41.86Zm9.92,2.92V28H31.7V44.78H23.17V19.38H51.29v25.4Z"/><path class="cls-2" d="M83.93,22l-3.42,9.4H79.15l-2.44-6.67c-.8,2.19-1.66,4.49-2.44,6.67H72.92L69.5,22h1.83l2.27,6.2L75.87,22h1.69l2.27,6.2L82.1,22Z"/><path class="cls-2" d="M111.15,24.58h-1.74v-.74a.09.09,0,0,0-.09-.09h-5.76a.09.09,0,0,0-.09.09v5.78a.09.09,0,0,0,.09.09h5.76a.09.09,0,0,0,.09-.09V27.84h-2.13V26.12h3.87v3.5a1.82,1.82,0,0,1-1.83,1.81h-5.76a1.81,1.81,0,0,1-1.82-1.81V23.84A1.81,1.81,0,0,1,103.56,22h5.76a1.82,1.82,0,0,1,1.83,1.81Z"/><path class="cls-2" d="M125.31,23.75H118.4v2.12H124v1.72H118.4v2.12h6.91v1.72h-8.65V22h8.65Z"/><path class="cls-2" d="M138.18,22h1.73v9.4H138l-5.8-6.89v6.89h-1.72V22h1.88l5.79,6.9Z"/><path class="cls-2" d="M145,22h1.73v9.4H145Z"/><path class="cls-2" d="M159.69,22h1.74v9.4h-1.88l-5.8-6.89v6.89H152V22h1.88l5.79,6.9Z"/><path class="cls-2" d="M176,24.58h-1.73v-.74a.09.09,0,0,0-.09-.09h-5.77a.09.09,0,0,0-.09.09v5.78a.09.09,0,0,0,.09.09h5.77a.09.09,0,0,0,.09-.09V27.84H172.1V26.12H176v3.5a1.82,1.82,0,0,1-1.82,1.81h-5.77a1.81,1.81,0,0,1-1.81-1.81V23.84A1.81,1.81,0,0,1,168.37,22h5.77A1.82,1.82,0,0,1,176,23.84Z"/><path class="cls-2" d="M190,23.75H183v2.12h5.57v1.72H183v2.12H190v1.72H181.3V22H190Z"/><path class="cls-2" d="M202.66,22h1.73v9.4h-1.88l-5.8-6.89v6.89H195V22h1.88l5.79,6.9Z"/><path class="cls-2" d="M95.33,23.84C95,22.73,94.52,22,93.51,22H90.68c-1,0-1.44.7-1.82,1.81l-2.72,7.59h1.78l1.14-3.16h6.09l1.16,3.16h1.75Zm-5.68,2.71.94-2.71c0-.06,0-.09.09-.09h2.86s.06,0,.09.09l.94,2.71Z"/><path class="cls-2" d="M74.88,38.85h.83v4.56a1,1,0,0,1-1,1H71.15a1,1,0,0,1-1-1V38.85H71v4.56a.18.18,0,0,0,.17.17h3.56a.18.18,0,0,0,.17-.17Z"/><path class="cls-2" d="M82.5,38.85h.84v5.56h-1L78.61,40v4.45h-.84V38.85h1L82.5,43.3Z"/><path class="cls-2" d="M85.42,38.85h.84v5.56h-.84Z"/><path class="cls-2" d="M93.5,38.85h1l-3.2,5.56h-.84L87.2,38.85h1l2.67,4.62Z"/><path class="cls-2" d="M100.32,39.68H96.05v1.53h3.44v.84H96.05v1.53h4.27v.83h-5.1V38.85h5.1Z"/><path class="cls-2" d="M107.89,41.42a1,1,0,0,1-1,1h-.57l1.57,1.87v.11h-1l-1.67-2h-1.9l-.17,0v2h-.83V38.86h4.56a1,1,0,0,1,1,1Zm-4.73-1.73v1.9h3.73a.17.17,0,0,0,.17-.17V39.86a.18.18,0,0,0-.17-.17Z"/><path class="cls-2" d="M153.24,41.42a1,1,0,0,1-1,1h-.56l1.56,1.87v.11h-1l-1.66-2h-1.91l-.17,0v2h-.83V38.86h4.56a1,1,0,0,1,1,1Zm-4.73-1.73v1.9h3.73a.17.17,0,0,0,.17-.17V39.86a.18.18,0,0,0-.17-.17Z"/><path class="cls-2" d="M189.63,41.42a1,1,0,0,1-1,1h-.56l1.57,1.87v.11h-1l-1.67-2h-1.9l-.17,0v2h-.84V38.86h4.56a1,1,0,0,1,1,1Zm-4.73-1.73v1.9h3.72a.17.17,0,0,0,.17-.17V39.86a.18.18,0,0,0-.17-.17Z"/><path class="cls-2" d="M115.45,40.18h-.84v-.33a.17.17,0,0,0-.17-.17h-3.55a.18.18,0,0,0-.17.17V41a.17.17,0,0,0,.17.17h3.55a1,1,0,0,1,1,1v1.19a1,1,0,0,1-1,1h-3.55a1,1,0,0,1-1-1v-.33h.84v.33a.18.18,0,0,0,.17.17h3.55a.17.17,0,0,0,.17-.17V42.22a.17.17,0,0,0-.17-.17h-3.55a1,1,0,0,1-1-1V39.85a1,1,0,0,1,1-1h3.55a1,1,0,0,1,1,1Z"/><path class="cls-2" d="M117.49,38.85h.84v5.56h-.84Z"/><path class="cls-2" d="M125.26,38.85v.83H122.9v4.73h-.83V39.68H119.7v-.83Z"/><path class="cls-2" d="M131.81,38.85l-2.56,3.48v2.08h-.84V42.33l-2.56-3.48h1l2,2.53,2-2.53Z"/><path class="cls-2" d="M160.39,39.68h-4.27v1.53h3.44v.84h-3.44v1.53h4.27v.83h-5.1V38.85h5.1Z"/><path class="cls-2" d="M167.65,40.18h-.83v-.33a.18.18,0,0,0-.17-.17h-3.56a.18.18,0,0,0-.17.17V41a.17.17,0,0,0,.17.17h3.56a1,1,0,0,1,1,1v1.19a1,1,0,0,1-1,1h-3.56a1,1,0,0,1-1-1v-.33h.83v.33a.18.18,0,0,0,.17.17h3.56a.18.18,0,0,0,.17-.17V42.22a.18.18,0,0,0-.17-.17h-3.56a1,1,0,0,1-1-1V39.85a1,1,0,0,1,1-1h3.56a1,1,0,0,1,1,1Z"/><path class="cls-2" d="M174.81,39.68h-4.27v1.53H174v.84h-3.43v1.53h4.27v.83h-5.1V38.85h5.1Z"/><path class="cls-2" d="M180.15,38.85c.56,0,.88.42,1.09,1l1.62,4.56H182l-.73-1.94h-3.86l-.71,1.94h-.84l1.68-4.56c.22-.62.45-1,1-1Zm.86,2.78-.69-1.78c0-.1-.08-.17-.17-.17h-1.62c-.1,0-.12,0-.17.17l-.67,1.78Z"/><path class="cls-2" d="M192.52,39.68a.17.17,0,0,0-.16.17v3.56a.17.17,0,0,0,.16.17h4.55v.83h-4.55a1,1,0,0,1-1-1V39.85a1,1,0,0,1,1-1h4.55v.83Z"/><path class="cls-2" d="M204.4,38.85v5.56h-.83V42.05h-4v2.36h-.84V38.85h.84v2.36h4V38.85Z"/><path class="cls-2" d="M142.6,43.59l-1-.61v-1.6h-.84v1.07l-3.06-1.92h0a.17.17,0,0,1-.09-.14v-.52a.18.18,0,0,1,.17-.17h2.06a.18.18,0,0,1,.17.17v.37h.83v-.54a1,1,0,0,0-1-.84h-2.06a1,1,0,0,0-1,1v.62c0,.29.16.39.43.55h-.15c-.56,0-1,.16-1,.72v1.66a1,1,0,0,0,1,1h3.55a1,1,0,0,0,.95-.66h0l1,.66Zm-1.82-.18a.16.16,0,0,1-.17.17h-3.55a.17.17,0,0,1-.17-.17V41.75a.17.17,0,0,1,0-.07.21.21,0,0,1,.2-.1h1l2.67,1.69Z"/></svg>